<svg xmlns="http://www.w3.org/2000/svg" viewBox="59.047 187.459 73.495 75.485" width="73.495" height="75.485"><path fill="#243B89" fill-rule="nonzero" d="M74.39 225.623H76.753V228.616H74.39ZM66.421 248.249C69.832 252.754 75.829 251.728 75.829 251.728C76.554 245.348 73.974 243.282 73.974 243.282C72.372 246.666 74.796 250.751 74.796 250.751C71.152 247.386 66.421 248.249 66.421 248.249ZM72.642 213.255L71.498 212.185C68.724 212.888 66.708 215.348 66.708 215.348C68.012 212.233 67.308 209.318 66.722 207.771L65.892 207.089C63.484 211.646 66.151 216.65 66.151 216.65C69.848 215.76 71.727 214.301 72.642 213.255ZM80.382 254.86C80.261 252.884 79.902 251.438 79.457 250.284L77.176 250.287C77.794 252.452 79.194 254.084 79.194 254.084C75.02 251.4 70.51 253.067 70.51 253.067C74.652 256.915 80.382 254.86 80.382 254.86ZM79.823 221.059L79.823 247.033L92.688 247.033C94.146 247.067 95.642 248.208 95.642 248.208L95.642 227.433C87.848 227.263 86.276 221.059 86.276 221.059L79.823 221.059ZM85.915 236.852L84.948 236.852L84.948 241.874L83.728 241.874L83.728 236.852L82.771 236.852L82.771 235.702L85.915 235.702L85.915 236.852ZM91.984 241.974C91.637 241.974 91.213 241.869 90.934 241.661L90.934 240.499C91.221 240.696 91.498 240.828 91.86 240.828C92.251 240.828 92.564 240.567 92.564 240.154C92.564 239.682 92.185 239.501 91.843 239.253C91.136 238.779 90.705 238.323 90.705 237.42C90.705 236.446 91.268 235.605 92.317 235.605C92.71 235.605 93.063 235.711 93.397 235.907L93.397 237.097C93.152 236.884 92.851 236.703 92.514 236.703C92.135 236.703 91.897 236.929 91.897 237.307C91.897 238.323 93.756 238.38 93.756 240.049C93.756 241.147 93.13 241.974 91.984 241.974M92.886 228.186H94.107V234.36H92.886ZM89.052 228.186L90.28 228.186C91.057 228.186 92.448 228.269 92.448 229.957C92.448 230.634 92.177 231.216 91.572 231.548L92.646 234.359L91.36 234.359L90.288 231.51L90.272 231.51L90.272 234.359L89.052 234.359L89.052 228.186ZM90.335 241.874L89.035 241.874L88.805 240.837L87.569 240.837L87.348 241.874L86.136 241.874L87.569 235.702L88.853 235.702L90.335 241.874ZM88.803 228.186L88.803 229.334L87.566 229.334L87.566 230.677L88.654 230.677L88.654 231.822L87.566 231.822L87.566 233.214L88.817 233.214L88.817 234.359L86.349 234.359L86.349 228.195L84.637 234.359L83.64 234.359L81.857 228.186L83.162 228.186L83.899 231.151C84.007 231.501 84.049 231.854 84.123 232.205L84.137 232.205C84.203 231.847 84.23 231.496 84.328 231.135L85.069 228.186L88.803 228.186ZM109.691 207.641L105.835 211.834L105.875 218.537C105.875 218.537 105.756 219.643 105.519 220.193L107.998 220.193L115.08 213.107L109.691 207.641M74.47 239.753H76.833V242.74H74.47ZM80.688 210.75L85.648 215.625L85.648 211.85L80.688 206.892L80.688 210.75ZM76.775 252.556C77.088 252.556 77.336 252.304 77.336 251.994C77.336 251.685 77.088 251.433 76.775 251.433C76.467 251.433 76.216 251.685 76.216 251.994C76.216 252.304 76.467 252.556 76.775 252.556ZM67.794 212.595C67.794 212.902 68.046 213.155 68.354 213.155C68.666 213.155 68.916 212.902 68.916 212.595C68.916 212.285 68.666 212.031 68.354 212.031C68.046 212.031 67.794 212.285 67.794 212.595ZM76.809 248.465C76.833 248.721 76.877 248.408 76.877 248.408L76.877 244.759L76.277 245.425C76.619 246.348 76.737 247.671 76.809 248.465ZM85.648 217.494L85.648 216.731L81.986 213.069L73.41 213.069L78.253 217.494L85.648 217.494ZM67.037 207.081C67.037 207.081 66.716 205.08 68.802 202.087L61.76 202.087C61.76 202.087 62.059 202.906 67.037 207.081ZM60.936 218.065C59.673 223.577 64.318 227.511 64.318 227.511C69.669 223.973 69.591 220.665 69.591 220.665C65.968 221.608 64.395 226.095 64.395 226.095C64.632 221.137 60.936 218.065 60.936 218.065ZM65.082 220.616C66.176 215.776 63.067 212.112 63.067 212.112C60.87 217.321 64.759 222.002 64.759 222.002C70.644 219.443 71.14 216.175 71.14 216.175C67.412 216.475 65.082 220.616 65.082 220.616ZM65.577 222.93C65.577 222.62 65.325 222.369 65.017 222.369C64.704 222.369 64.456 222.62 64.456 222.93C64.456 223.237 64.704 223.488 65.017 223.488C65.325 223.488 65.577 223.237 65.577 222.93ZM94.27 251.322L97.962 251.322C97.962 251.322 98.205 249.719 99.249 249.719L114.58 249.719L114.58 222.743L113.056 221.139L113.056 247.869L99.328 247.869C99.328 247.869 97.481 248.033 96.034 249.797C96.034 249.797 94.914 248.111 92.506 247.952L79.099 247.952L79.099 221.379L77.452 223.024L77.452 249.719L92.422 249.719C92.422 249.719 94.27 249.797 94.27 251.322ZM70.243 201.75C66.397 205.892 68.452 211.621 68.452 211.621C74.856 211.23 76.438 208.332 76.438 208.332C72.833 207.337 69.227 210.435 69.227 210.435C71.911 206.258 70.243 201.75 70.243 201.75ZM88.314 238.227L88.173 237.288L88.156 237.288L88.027 238.227L87.765 239.869L88.626 239.869L88.314 238.227ZM123.74 249.835C124.672 249.255 125.558 248.465 126.295 247.386C126.295 247.386 124.267 247.121 121.896 247.925L123.74 249.835ZM127.641 225.356C127.641 225.356 125.961 220.907 122.317 220.045C122.317 220.045 122.317 223.353 127.75 226.77C127.75 226.77 132.302 222.725 130.912 217.246C130.912 217.246 127.287 220.403 127.641 225.356ZM120.815 238.63C120.815 238.63 118.692 241.165 120.657 247.27C120.657 247.27 126.741 247.1 129.198 242.012C129.198 242.012 124.393 242.099 121.478 246.119C121.478 246.119 123.052 241.632 120.815 238.63ZM127.491 230.873C127.491 230.873 126.611 226.195 123.176 224.72C123.176 224.72 122.599 227.975 127.356 232.283C127.356 232.283 132.542 229.091 132.125 223.456C132.125 223.456 128.005 225.937 127.491 230.873ZM123.203 229.469C123.203 229.469 122.075 232.577 126.011 237.645C126.011 237.645 131.669 235.403 132.237 229.778C132.237 229.778 127.755 231.504 126.393 236.279C126.393 236.279 126.332 231.523 123.203 229.469ZM126.804 233.646C127.116 233.646 127.367 233.392 127.367 233.081C127.367 232.771 127.116 232.521 126.804 232.521C126.495 232.521 126.246 232.771 126.246 233.081C126.246 233.392 126.495 233.646 126.804 233.646ZM123.526 243.239C123.526 242.929 123.278 242.678 122.966 242.678C122.657 242.678 122.406 242.929 122.406 243.239C122.406 243.549 122.657 243.8 122.966 243.8C123.278 243.8 123.526 243.549 123.526 243.239ZM76.122 209.833L76.127 209.833C75.903 210.006 74.346 211.433 71.972 211.718L72.78 212.481L81.28 212.438L78.643 209.804L78.64 209.804L77.303 208.466C77.303 208.466 76.359 209.672 76.122 209.833ZM108.981 237.331L108.964 237.331L108.833 238.264L108.572 239.908L109.431 239.908L109.12 238.264L108.981 237.331ZM91.26 229.965C91.26 229.522 91.047 229.161 90.435 229.193L90.272 229.193L90.272 230.838L90.485 230.846C91.042 230.846 91.26 230.472 91.26 229.965ZM96.506 227.276L96.506 248.208C96.506 248.208 97.688 247.033 99.34 247.033L112.33 247.033L112.33 221.059L105.323 221.059C105.323 221.059 103.335 227.188 96.506 227.276ZM98.073 228.229L99.293 228.229L99.293 233.254L100.568 233.254L100.568 234.397L98.073 234.397L98.073 228.229ZM102.028 241.918L101.735 237.469L101.717 237.469L101.52 238.992L100.998 241.918L100.057 241.918L99.458 238.96L99.254 237.584L99.254 237.469L99.238 237.469L99.059 241.918L97.746 241.918L98.287 235.745L99.894 235.745L100.491 239.389L100.505 239.389L100.998 235.745L102.636 235.745L103.282 241.918L102.028 241.918ZM109.84 241.918L109.61 240.877L108.374 240.877L108.153 241.918L106.944 241.918L108.374 235.745L109.661 235.745L111.144 241.918L109.84 241.918ZM106.126 228.229L107.498 228.229L107.853 229.086C107.957 229.391 108.084 229.706 108.147 230.026L108.161 230.026C108.228 229.706 108.327 229.398 108.44 229.086L108.81 228.229L110.126 228.229L108.81 231.216L110.224 234.397L108.81 234.397L108.417 233.419C108.302 233.106 108.228 232.801 108.147 232.494L108.13 232.494C108.04 232.801 107.969 233.106 107.86 233.419L107.498 234.397L106.126 234.397L107.432 231.216L106.126 228.229ZM106.457 235.745L106.457 236.889L105.221 236.889L105.221 238.231L106.309 238.231L106.309 239.378L105.221 239.378L105.221 240.769L106.478 240.769L106.478 241.918L104.003 241.918L104.003 235.745L106.457 235.745ZM103.318 233.392C103.915 233.392 103.915 232.941 103.922 232.483L103.922 228.229L105.143 228.229L105.143 232.729C105.143 233.384 105.068 234.497 103.31 234.497C102.173 234.497 101.493 233.963 101.493 232.809L101.493 228.229L102.713 228.229L102.713 232.222C102.713 232.688 102.655 233.392 103.318 233.392ZM79.921 206.201C79.921 206.201 79.368 207.007 77.265 207.463L79.921 209.919L79.921 206.201ZM86.666 216.949C86.666 223.482 90.76 226.5 95.811 226.5C100.869 226.5 104.966 223.49 104.966 216.949L104.966 198.325L86.668 198.325C86.668 198.325 86.666 210.424 86.666 216.949ZM91.075 203.753L91.075 200.997L99.654 200.997L99.654 204.934L102.486 204.934L102.486 207.768L99.733 207.768L99.733 209.027L102.486 209.027L102.486 212.096L99.733 212.096L99.733 221.304L97.373 221.304L94.105 218.038L91.117 221.028L88.953 218.864L93.911 213.905L96.468 216.463L96.468 203.753L91.075 203.753ZM78.846 218.185L81.033 220.112L85.962 220.112C85.725 219.721 85.801 218.228 85.801 218.228L78.846 218.185ZM118.501 242.808C118.501 242.808 118.104 243.229 117.971 243.861L119.158 245.095C119.092 244.323 118.897 243.543 118.501 242.808ZM71.891 247.844C73.714 241.691 71.53 239.21 71.53 239.21C69.364 242.26 71.042 246.707 71.042 246.707C68.034 242.759 63.227 242.786 63.227 242.786C65.807 247.815 71.891 247.844 71.891 247.844ZM71.587 207.072C77.963 207.795 80.026 205.214 80.026 205.214C76.648 203.61 72.557 206.034 72.557 206.034C75.929 202.389 75.067 197.659 75.067 197.659C70.558 201.067 71.587 207.072 71.587 207.072ZM84.935 252.17C85.235 255.897 89.379 258.226 89.379 258.226C84.537 257.137 80.87 260.245 80.87 260.245C86.078 262.439 90.76 258.552 90.76 258.552C88.201 252.668 84.935 252.17 84.935 252.17ZM68.687 243.338C71.548 237.595 69.832 234.772 69.832 234.772C67.164 237.398 68.046 242.074 68.046 242.074C65.77 237.66 61.033 236.854 61.033 236.854C62.698 242.252 68.687 243.338 68.687 243.338ZM81.552 250.301L80.757 250.295C80.713 253.821 84.107 256.603 84.107 256.603C79.526 254.686 75.379 257.109 75.379 257.109C80.125 260.177 85.409 257.16 85.409 257.16C84.379 252.873 82.576 251.034 81.552 250.301ZM69.735 252.965C69.735 252.965 70.61 252.444 71.877 252.256L70.473 251.927L70.336 252.102C70.415 251.988 70.473 251.927 70.473 251.927L64.24 258.484C64.24 258.484 63.531 259.504 64.203 260.175C64.203 260.175 64.829 260.688 65.696 260.097L71.764 254.787C71.152 254.472 69.81 253.354 69.735 252.965ZM66.311 238.343C70.13 233.187 68.923 230.107 68.923 230.107C65.847 232.232 65.899 236.989 65.899 236.989C64.429 232.248 59.9 230.625 59.9 230.625C60.604 236.236 66.311 238.343 66.311 238.343ZM69.511 201.424L62.134 194.041C62.134 194.041 59.047 196.254 61.446 201.424L69.511 201.424ZM72.849 198.735L68.51 194.356C65.823 191.67 62.635 193.442 62.635 193.442L71.184 201.952C71.756 199.768 72.849 198.735 72.849 198.735ZM64.854 233.794C64.854 234.104 65.107 234.354 65.417 234.354C65.726 234.354 65.978 234.104 65.978 233.794C65.978 233.483 65.726 233.232 65.417 233.232C65.107 233.232 64.854 233.483 64.854 233.794ZM64.84 233.017C69.498 228.598 68.843 225.359 68.843 225.359C65.444 226.915 64.671 231.609 64.671 231.609C64.044 226.684 59.866 224.299 59.866 224.299C59.585 229.951 64.84 233.017 64.84 233.017ZM68.929 243.884C68.929 244.193 69.18 244.444 69.49 244.444C69.801 244.444 70.049 244.193 70.049 243.884C70.049 243.573 69.801 243.322 69.49 243.322C69.18 243.322 68.929 243.573 68.929 243.884ZM115.865 252.069C116.176 252.069 116.429 251.818 116.429 251.509C116.429 251.198 116.176 250.945 115.865 250.945C115.555 250.945 115.304 251.198 115.304 251.509C115.304 251.818 115.555 252.069 115.865 252.069ZM118.847 251.339L116.875 249.731C116.916 250.236 116.979 250.765 117.074 251.333C117.074 251.333 117.786 251.417 118.847 251.339ZM124.366 241.411C124.366 241.411 125.137 236.72 122.412 234.157C122.412 234.157 120.757 237.018 123.756 242.691C123.756 242.691 129.718 241.467 131.254 236.025C131.254 236.025 126.536 236.948 124.366 241.411ZM86.956 257.065C86.956 256.759 86.705 256.505 86.395 256.505C86.086 256.505 85.833 256.759 85.833 257.065C85.833 257.379 86.086 257.627 86.395 257.627C86.705 257.627 86.956 257.379 86.956 257.065ZM113.501 253.682C113.501 253.682 114.719 252.226 115.317 250.177L113.035 250.142C112.675 251.261 112.4 252.685 112.333 254.488C112.333 254.488 117.262 256.124 121.208 253.267L119.688 252.048C118.004 251.954 115.69 252.202 113.501 253.682ZM115.161 244.593L115.161 247.583L128.541 258.679L131.217 258.679L117.598 244.593L115.161 244.593ZM95.565 257.497L95.565 258.896C94.919 257.878 92.396 254.191 89.548 254.011C89.548 254.011 90.518 257.306 94.781 259.241C94.781 259.241 89.432 259.595 87.248 262.526C87.248 262.526 91.912 262.944 95.565 259.316L95.565 261.593L96.982 261.593L96.982 259.15L96.982 257.497L95.565 257.497ZM97.926 259.23C102.175 257.263 103.119 253.957 103.119 253.957C99.814 254.191 96.982 259.15 96.982 259.15C100.681 262.928 105.48 262.455 105.48 262.455C103.277 259.547 97.926 259.23 97.926 259.23ZM103.417 258.063C103.417 258.063 107.507 255.637 107.719 251.9C107.719 251.9 104.462 252.474 102.043 258.42C102.043 258.42 106.813 262.197 111.969 259.881C111.969 259.881 108.233 256.856 103.417 258.063ZM108.649 256.313C108.649 256.313 111.826 253.585 111.855 250.18L110.72 250.226C109.694 251.126 108.193 253.034 107.357 256.904C107.357 256.904 112.717 259.797 117.388 256.618C117.388 256.618 113.18 254.289 108.649 256.313ZM105.835 256.851C105.835 257.16 106.09 257.411 106.396 257.411C106.709 257.411 106.96 257.16 106.96 256.851C106.96 256.542 106.709 256.289 106.396 256.289C106.09 256.289 105.835 256.542 105.835 256.851ZM125.661 215.952C125.661 215.952 128.557 210.597 125.379 205.924C125.379 205.924 123.052 210.127 125.076 214.663C125.076 214.663 121.978 211.055 118.26 211.494C118.26 211.494 119.391 214.601 125.661 215.952ZM112.052 203.432L113.75 201.674C112.306 201.34 109.586 200.86 107.392 202.497C107.392 202.497 108.52 203.774 112.052 203.432ZM123.347 212.516C123.658 212.516 123.911 212.265 123.911 211.953C123.911 211.643 123.658 211.392 123.347 211.392C123.039 211.392 122.786 211.643 122.786 211.953C122.786 212.265 123.039 212.516 123.347 212.516ZM127.183 221.269C127.183 221.269 130.959 216.499 128.64 211.34C128.64 211.34 125.619 215.078 126.823 219.896C126.823 219.896 124.398 215.809 120.663 215.593C120.663 215.593 121.237 218.848 127.183 221.269ZM119.016 194.394C120.781 195.273 122.207 194.351 122.207 194.351C124.175 193.385 125.6 194.726 125.6 194.726C126.973 195.799 126.749 197.211 126.749 197.211C126.749 198.293 126.438 198.368 126.438 198.368C125.782 198.819 125.945 198.056 125.945 198.056C125.964 198.048 126.095 197.524 126.095 197.524C126.352 195.079 124.159 194.726 124.159 194.726C121.834 194.321 121.251 196.473 121.251 196.473C121.105 197.063 121.092 197.589 121.158 198.05L118.252 195.144L118.389 197.603L124.88 204.096L127.204 204.096L124.847 201.739C126.092 202.13 127.183 202.17 127.183 202.17C130.498 201.966 130.846 198.797 130.846 198.797C131.721 195.483 128.58 192.809 128.58 192.809C126.485 191.007 123.316 190.862 123.316 190.862C118.811 190.339 117.209 187.459 117.209 187.459C116.682 188.77 116.819 190.708 116.819 190.708C117.119 193.695 119.016 194.394 119.016 194.394ZM126.385 222.188C126.385 222.499 126.635 222.75 126.944 222.75C127.254 222.75 127.505 222.499 127.505 222.188C127.505 221.875 127.254 221.627 126.944 221.627C126.635 221.627 126.385 221.875 126.385 222.188ZM114.084 201.243L115.453 199.854C114.874 197.892 113.691 195.523 110.772 194.114C110.772 194.114 110.651 198.314 114.084 201.243M115.161 240.024H117.524V243.014H115.161ZM119.361 210.397C120.402 210.693 121.682 210.915 123.248 210.979C123.248 210.979 123.958 208.86 123.65 206.291L121.605 208.248C121.825 208.766 122.104 209.292 122.452 209.807C122.452 209.807 121.887 209.34 120.984 208.841L119.361 210.397ZM74.504 204.012C74.504 204.322 74.755 204.573 75.064 204.573C75.374 204.573 75.624 204.322 75.624 204.012C75.624 203.702 75.374 203.451 75.064 203.451C74.755 203.451 74.504 203.702 74.504 204.012ZM123.896 204.686L117.835 198.627L112.405 204.529L118.231 210.278L123.896 204.686ZM111.03 204.886L109.81 206.342L116.421 212.953L117.759 211.613L111.03 204.886M115.041 225.386H117.406V228.377H115.041ZM89.118 196.831C89.118 196.831 90.976 198.059 94.24 195.81C94.24 195.81 90.198 194.148 89.118 196.831ZM110.171 198.948C110.171 198.948 108.335 198.39 106.019 199.18L106.014 201.294C107.424 201.267 108.86 200.927 111.452 199.555C111.452 199.555 110.227 193.599 104.789 192.059C104.789 192.059 105.709 196.777 110.171 198.948ZM85.801 201.58L85.846 199.522C83.557 198.849 81.24 199.285 81.24 199.285C85.65 197.012 86.459 192.275 86.459 192.275C81.062 193.938 79.973 199.927 79.973 199.927C82.464 201.167 84.405 201.547 85.801 201.58ZM84.104 202.769C81.053 200.601 76.604 202.281 76.604 202.281C80.556 199.274 80.527 194.467 80.527 194.467C75.498 197.044 75.468 203.13 75.468 203.13C81.622 204.953 84.104 202.769 84.104 202.769ZM83.756 198.255C83.756 198.565 84.007 198.816 84.315 198.816C84.626 198.816 84.876 198.565 84.876 198.255C84.876 197.945 84.626 197.694 84.315 197.694C84.007 197.694 83.756 197.945 83.756 198.255ZM85.114 197.665L89.347 197.603C88.03 196.81 86.591 196.842 86.591 196.842C91.332 195.364 92.683 191.142 92.683 191.142C87.074 191.843 84.965 197.554 84.965 197.554C85.04 197.608 85.042 197.608 85.114 197.665ZM107.714 197.948C107.714 197.641 107.465 197.39 107.153 197.39C106.844 197.39 106.593 197.641 106.593 197.948C106.593 198.26 106.844 198.508 107.153 198.508C107.465 198.508 107.714 198.26 107.714 197.948ZM104.742 196.842C104.742 196.842 103.301 196.81 101.988 197.603L106.22 197.665C106.294 197.608 106.294 197.608 106.369 197.554C106.369 197.554 104.26 191.843 98.652 191.142C98.652 191.142 100.005 195.364 104.742 196.842ZM95.642 196.193C96.056 196.193 96.393 195.853 96.393 195.44C96.393 195.025 96.056 194.688 95.642 194.688C95.228 194.688 94.891 195.025 94.891 195.44C94.891 195.853 95.228 196.193 95.642 196.193ZM102.215 196.581C101.035 193.943 97.059 195.753 97.059 195.753C100.402 197.88 102.215 196.581 102.215 196.581Z"/></svg>